<svg xmlns="http://www.w3.org/2000/svg" xmlns:xlink="http://www.w3.org/1999/xlink" width="440" height="140" viewBox="0 0 440 140">
  <defs>
    <clipPath id="clip-path">
      <rect id="Rectangle_910" data-name="Rectangle 910" width="440" height="140" transform="translate(960 1625)" fill="#fff" stroke="#707070" stroke-width="1"/>
    </clipPath>
    <linearGradient id="linear-gradient" x1="-0.694" y1="1" x2="-0.694" gradientUnits="objectBoundingBox">
      <stop offset="0" stop-color="#d3ecfa"/>
      <stop offset="0.156" stop-color="#e2f2fb"/>
      <stop offset="0.383" stop-color="#f2f9fd"/>
      <stop offset="0.642" stop-color="#fcfdfe"/>
      <stop offset="0.994" stop-color="#fff"/>
    </linearGradient>
    <linearGradient id="linear-gradient-2" x1="-0.726" y1="1.327" x2="-0.688" y2="0.404" gradientUnits="objectBoundingBox">
      <stop offset="0" stop-color="#cee3f5"/>
      <stop offset="0.585" stop-color="#edf5fb"/>
      <stop offset="0.994" stop-color="#fff"/>
    </linearGradient>
    <linearGradient id="linear-gradient-3" x1="-3.482" y1="1" x2="-3.482" gradientUnits="objectBoundingBox">
      <stop offset="0" stop-color="#ced9ee"/>
      <stop offset="0.069" stop-color="#d3dcef"/>
      <stop offset="0.32" stop-color="#e3e6f3"/>
      <stop offset="0.605" stop-color="#edecf5"/>
      <stop offset="0.994" stop-color="#f0eef6"/>
    </linearGradient>
    <linearGradient id="linear-gradient-4" x1="-1.301" y1="1" x2="-1.301" y2="0" xlink:href="#linear-gradient-3"/>
  </defs>
  <g id="Mask_Group_6" data-name="Mask Group 6" transform="translate(-960 -1625)" clip-path="url(#clip-path)">
    <g id="Group_2483" data-name="Group 2483" transform="translate(-333.711 1693.216)">
      <path id="Path_7795" data-name="Path 7795" d="M1286.155,92.494s15.883-.09,41.2-.379h.01c52.095-.591,144.126-2.037,219.825-5.314h.01q4.656-.2,9.223-.411l.4-.019c107.624-4.967,203.02-10.905,212.224-11.484.48-.032.731-.045.731-.045V-25.74s-44.264-10.751-67.346,0-20.379,48.948-20.379,48.948-11.547-9.588-24.445-8.283-15.552,10.79-15.552,10.79-23.153-10.79-44.884,0-13.73,49.455-13.73,49.455c-19.918-10.1-30.864.649-30.864.649a.792.792,0,0,0-.07-.09c-.9-1.138-10.334-12.923-21.15-19.979-.23-.154-.431-.289-.6-.392a.847.847,0,0,0-.14-.09c-.08-.052-.141-.09-.2-.122a.454.454,0,0,0-.1-.064l-.04-.025c-4.687-2.9-9.594-4.826-14.13-4.563-11.136.649-7.591,13.957-7.591,13.957s-36.112-47.065-77.981-43.28C1395.261,24.364,1401.14,63,1401.14,63s-10.866-7.846-16.744-3.778-2.263,15.4-2.263,15.4-3.285-3.1-10.485-4.653a.093.093,0,0,0-.04-.006,46.868,46.868,0,0,0-18,.013c-9.143,1.6-17.615,5.784-24.094,9.851l-.03.019c-2.644,1.652-4.967,3.29-6.85,4.717-.11.077-.21.154-.31.231-3.1,2.358-5.017,4.113-5.337,4.415a.224.224,0,0,0-.05.045,109.522,109.522,0,0,0-13.129,0,64.025,64.025,0,0,0-8.6,1.054.088.088,0,0,0-.04.006A84.991,84.991,0,0,0,1286.155,92.494Z" transform="translate(0 -20.911)" fill-rule="evenodd" fill="url(#linear-gradient)"/>
      <path id="Path_7796" data-name="Path 7796" d="M1286.155,151.011s156.864-.874,270.266-6.1c107.784-4.974,203.411-10.924,212.624-11.5l.731-10.108V66.752s-19.754,26.892-50.989,22.753c-10.246-1.358-7.315-22.965-2.828-31.377-.551.938-5.328,8.527-17.665,11.272,0,0-8.3-.3-11.126-5.848,0,0-4.657,9.067-5.117,18.173,0,0,18.495,13.522,8.149,22.251-13.662,11.526-44.531-6.334-44.531-6.334s4.056,11.368-10.115,23.706-52.115,12.338-52.115,12.338,6.578,2.748,6.131,5.234c-.569,3.166-32.7,4.348-39.277,3.044s2.282-7.629,2.282-7.629a.792.792,0,0,0-.07-.09c-.891-1.227-10.645-14.394-22.142-20.621a.225.225,0,0,0,.05.038c.06.032.12.071.2.122l.14.09c.17.1.371.238.6.392,3.255,2.165,12.788,9.183,13.63,17.35,1.012,9.858-17.044,7.184-24.625,4.267s-11.807-12.917-11.807-12.917l-7.343-8.41c3.8,11.057,1.352,19.71-3.286,22.32-11.638,6.548-31.37-2.057-47.563-10.173s-30.865-9.9-46.028-5.041c.741-.173,21.46-5.045,34.389,2.6,13.159,7.795,5.568,15.956-7.08,18.205s-20.239-3.265-24.295-8.135a41.728,41.728,0,0,1-4.446-6.471c1.512,3.29,3.845,9.247,2.424,11.991-2.023,3.894-11.637,3.573-16.694.649a14.712,14.712,0,0,1-6.5-7.364s-3.225-3.811-10.485-4.653a.093.093,0,0,0-.04-.006s10.956,9.2,8.292,14.51-30.354,6.034-40.6,3.843-9.784-8.489-9.784-8.489l-.03.019c-.34.219-3.635,2.378-6.85,4.717-.11.077-.21.154-.31.231a40.135,40.135,0,0,0-5.337,4.415.224.224,0,0,0-.05.045s-12.568.045-21.731,1.054a.088.088,0,0,0-.04.006C1290.822,149.308,1287.246,150,1286.155,151.011Z" transform="translate(0 -79.428)" fill-rule="evenodd" fill="url(#linear-gradient-2)" style="mix-blend-mode: multiply;isolation: isolate"/>
      <path id="Path_7797" data-name="Path 7797" d="M2082.511,198.092c107.624-4.967,203.02-10.905,212.223-11.484.48-.032.731-.045.731-.045V138.728s-39.6,4.978-56.3,11.391-1.012,21.51-55.147,17.288c-11.647,2.924-36.763,20.047-58.32,24.143C2111.232,194.3,2085.605,197.919,2082.511,198.092Z" transform="translate(-525.689 -132.634)" fill-rule="evenodd" fill="url(#linear-gradient-3)" style="mix-blend-mode: multiply;isolation: isolate"/>
      <path id="Path_7798" data-name="Path 7798" d="M1407.4,311.283c52.095-.591,144.126-2.037,219.824-5.314-1.092-.065-42.271-4.072-65.94-4.455C1529.765,301,1520.657,311.283,1407.4,311.283Z" transform="translate(-80.035 -240.079)" fill-rule="evenodd" fill="url(#linear-gradient-4)" style="mix-blend-mode: multiply;isolation: isolate"/>
      <path id="Path_7799" data-name="Path 7799" d="M1667.2,245.763c1.892,1.053,3.323,1.662,4.237,3.089a2.46,2.46,0,0,1,.579,1.7,4.061,4.061,0,0,1-1.528,2.338,24.026,24.026,0,0,1-3.231,2.455,9.95,9.95,0,0,0-1.333,1.13,9.869,9.869,0,0,1-2.457,1.348,17.309,17.309,0,0,1-2.34.771,23.527,23.527,0,0,1-3.509.4c-1.818.166-3.7.071-5.541.083-.989.006-2.009-.1-2.99-.18-.657-.052-1.25-.2-1.891-.279-.585-.077-1.178-.056-1.766-.149a18.939,18.939,0,0,1-3.908-.931,20.353,20.353,0,0,1-4.05-2.195,13.669,13.669,0,0,1-3.931-3.9,7.734,7.734,0,0,1-.852-2.43,12.891,12.891,0,0,1-.414-2.225,4.045,4.045,0,0,1,.762-2.56c.665-.868,2.616-1.327,3.968-1.567a33.657,33.657,0,0,1,3.616-.272c1.654-.105,3.344-.214,5.006-.207,1.463.006,2.935-.046,4.394.04,1.5.089,2.99.219,4.49.289a21.861,21.861,0,0,1,5.216.906c1.8.542,4.011.791,5.663,1.528,1.151.514,2.252,1.069,3.332,1.632a9.309,9.309,0,0,1,1.766,1.291Z" transform="translate(-228.476 -200.923)" fill="#fff"/>
      <path id="Path_7800" data-name="Path 7800" d="M1687.563,131.441a17.45,17.45,0,0,1,3.214,1.519c.153.144.289.421.473.6.83.8,1.677,1.595,2.449,2.414a19.379,19.379,0,0,1,4.255,6.258,11.1,11.1,0,0,1,.765,3.34,12.052,12.052,0,0,1-.537,3.275c-.543,2.187-.58,4.271-2.265,6.261a7.179,7.179,0,0,1-2.276,2.123,16.836,16.836,0,0,1-2.8,1.3,34.5,34.5,0,0,1-6.352,1.659c-7.562.956-15.209-.575-22.8-.134-2.772.161-5.657.235-8.441.121a14.9,14.9,0,0,1-6.871-2.224c-4.059-2.526-7.565-5.736-8.114-9.46-.27-1.834.475-3.724,1.1-5.5a10.947,10.947,0,0,1,1.651-2.8,21.134,21.134,0,0,1,2.6-3.08,36.362,36.362,0,0,1,13.7-7.785,47.173,47.173,0,0,1,11.4-2.24,37.723,37.723,0,0,1,11.773,1.26c2.248.61,4.809.969,6.817,1.867C1688.174,130.6,1688.964,130.948,1687.563,131.441Z" transform="translate(-232.394 -124.914)" fill="#fff"/>
      <path id="Path_7801" data-name="Path 7801" d="M1821.584,211.055a18.534,18.534,0,0,0-3.82.082c-.395.1-.806.293-1.221.395a37.243,37.243,0,0,0-4.6,1.468,16.128,16.128,0,0,0-3.638,1.963c-.8.605-1.859,1.475-1.937,2.313-.15,1.611.852,2.738,3.048,3.531a19.947,19.947,0,0,0,4.595,1.009,13.665,13.665,0,0,0,3.257-.04c4.937-.525,10.963-2.513,10.369-6.266a5.176,5.176,0,0,0-4.353-4.26A8.216,8.216,0,0,0,1821.584,211.055Z" transform="translate(-343.393 -180.339)" fill="#fff"/>
      <path id="Path_7802" data-name="Path 7802" d="M1579.455,231.561a15.461,15.461,0,0,1,5.641,2.419,4.144,4.144,0,0,1,1.2,5.532,14.7,14.7,0,0,1-2.085,2.965,12.214,12.214,0,0,1-3.934,2.554c-.991.483-2.318,1.481-3.605,1.64a11.575,11.575,0,0,1-3.629-.463,11.736,11.736,0,0,1-2.316-.745,3.957,3.957,0,0,1-1.651-1.517c-.807-1.013-.419-2.245-.486-3.334-.035-.559-.375-1.06-.216-1.62a7.368,7.368,0,0,0,.189-1.742,5.983,5.983,0,0,1,1.529-3.666,9.124,9.124,0,0,1,2.773-2.469,6.51,6.51,0,0,1,3.623-.857,5.191,5.191,0,0,1,2.46.649C1579.628,231.329,1580.651,231.58,1579.455,231.561Z" transform="translate(-186.27 -193.052)" fill="#fff"/>
      <path id="Path_7803" data-name="Path 7803" d="M1618.408,278.117a31.8,31.8,0,0,0-3.042.978c.042.376-.407.739-.26,1.141a1.922,1.922,0,0,0,.76.767,4.048,4.048,0,0,0,1.77.368,4.289,4.289,0,0,0,1.913-.561c.759-.4,2.477-1.32,1.647-2.008a4.779,4.779,0,0,0-1.062-.815,5.009,5.009,0,0,0-1.979.129Z" transform="translate(-217.127 -224.51)" fill="#fff"/>
      <path id="Path_7804" data-name="Path 7804" d="M1949.823,213.361a30.046,30.046,0,0,1,3.727-.075,3.348,3.348,0,0,0,.837.414c1.194.539,2.323,1.117,3.424,1.732a37.686,37.686,0,0,1,4.6,3.287,10.658,10.658,0,0,1,3.617,4.091,4.706,4.706,0,0,1,.012,4.245c-.67,1.287-2.634,2.355-4.445,2.992-.725.255-1.413.583-2.15.82a26.739,26.739,0,0,1-3.231.681,15.194,15.194,0,0,1-4.987.391,12.7,12.7,0,0,1-4.709-1.694c-1.1-.681-1.99-1.47-3.072-2.15a8.132,8.132,0,0,1-2.488-2.23,5.955,5.955,0,0,1-1.005-2.808c-.031-.591-.22-1.157-.259-1.746a6.767,6.767,0,0,1,.2-1.781c.357-1.807.736-3.927,3.584-4.878a21.593,21.593,0,0,1,3.878-.848c.754-.105,1.516-.152,2.271-.251C1950.514,213.437,1951.24,213.742,1949.823,213.361Z" transform="translate(-431.406 -181.833)" fill="#fff"/>
      <path id="Path_7805" data-name="Path 7805" d="M2086.753,268.973a32.943,32.943,0,0,1,3.565,1,10.893,10.893,0,0,1,1.5.954c.962.588,2.089,1,3.028,1.609,1.121.725,3.132,1.729,1.752,2.806a10.932,10.932,0,0,1-3.239,1.42c-1.871.514-3.766.888-5.7,1.285a50.94,50.94,0,0,1-6.229.663c-2.46.185-4.918.308-7.383.45a37.852,37.852,0,0,1-6.8-.292c-.782-.1-1.551-.117-2.333-.194-.538-.053-1.027-.222-1.557-.275-.663-.066-1.335,0-1.589-.5a2.075,2.075,0,0,1,.073-1.456,6.109,6.109,0,0,1,2.021-2.607c.666-.525,1.446-.961,2.164-1.457a22.9,22.9,0,0,1,3.41-2.1,14.874,14.874,0,0,1,4.289-1.486,43.282,43.282,0,0,1,5.477-.314,50.539,50.539,0,0,1,5.675.324c.727.081,1.439.212,2.162.295C2087.449,269.151,2087.972,269.051,2086.753,268.973Z" transform="translate(-511.918 -218.288)" fill="#fff"/>
      <path id="Path_7806" data-name="Path 7806" d="M2218.769,128.54a23.645,23.645,0,0,1,2.3,3.117,18.633,18.633,0,0,1,2.02,4.68,27.372,27.372,0,0,1,.545,11.05,17.032,17.032,0,0,1-2.448,5.768,11.915,11.915,0,0,1-3.642,4.144,25.208,25.208,0,0,1-5.11,2.424,19.385,19.385,0,0,1-4.845,1.3,84.729,84.729,0,0,1-10.636.314c-1.643-.022-3.345-.1-4.983-.2a19.909,19.909,0,0,1-4.777-.772,22.521,22.521,0,0,1-7.145-3.539,8.624,8.624,0,0,1-3.025-4.59,11,11,0,0,1-.31-5.028,23.529,23.529,0,0,0,.323-2.809,17.837,17.837,0,0,1,.438-2.963,9.894,9.894,0,0,1,3.407-5.729,29.759,29.759,0,0,1,6.331-4.289,25.582,25.582,0,0,1,3.77-1.749c1.679-.544,3.307-1.054,5.078-1.466a55.289,55.289,0,0,1,11.667-1.631,30.706,30.706,0,0,1,5.051.336,24.606,24.606,0,0,1,3.626.653,5.954,5.954,0,0,1,1.83.8C2218.583,128.659,2218.6,129.109,2218.769,128.54Z" transform="translate(-587.77 -124.61)" fill="#fff"/>
      <path id="Path_7807" data-name="Path 7807" d="M1461.012,266.105c-.089-.069,3.934,2.588,4.132,3.4a16.288,16.288,0,0,0,.173,1.779,2.069,2.069,0,0,1-.843,2.523c-3.174,2.605-8.958,3.293-13.542,4.31a73.145,73.145,0,0,1-15.849,1.624c-2.286,0-4.353-.168-6.619-.294a11.326,11.326,0,0,1-4.4-.666c-3.947-1.893,1.235-4.564,3.676-5.867,3.653-1.951,6.732-4.382,10.978-5.85a33.777,33.777,0,0,1,5.592-1.2,23.78,23.78,0,0,1,3.036-.424c.834-.026,1.657.082,2.488-.01a34.839,34.839,0,0,1,4.459-.3C1456.529,265.146,1458.48,265.853,1461.012,266.105Z" transform="translate(-90.09 -216.07)" fill="#fff"/>
      <path id="Path_7808" data-name="Path 7808" d="M2442.034,154.428c.333-1.386,1.493-3.56,1.035-4.932a15.06,15.06,0,0,0-.914-1.594c-.469-.936-.8-1.407-2.606-1.271-3.529.266-8.587,2.332-10.072,4.461-1.375,1.972-.085,3.745,2.919,4.665a16.263,16.263,0,0,0,4.691.3,8.565,8.565,0,0,0,4.947-1.305Z" transform="translate(-754.365 -137.835)" fill="#fff"/>
      <path id="Path_7809" data-name="Path 7809" d="M2578.284-21.191c.882,1.849,1.977,3.471,2.074,5.326a13.844,13.844,0,0,1-.32,3.607c-.385,1.8-.759,3.606-1.29,5.389A34.062,34.062,0,0,1,2574.76.824a51.082,51.082,0,0,1-9.51,11.806,72.038,72.038,0,0,1-11.032,8.251,10.148,10.148,0,0,1-6.292,1.472c-1.739-.194-3.259-1.561-4.2-2.447a11.789,11.789,0,0,1-3.414-9.189c.265-3.527,2.423-6.974,3.054-10.476.409-2.27,1.716-4.417,2.535-6.633.846-2.291,1.416-4.542,3-6.688a25.744,25.744,0,0,1,15.2-9.684C2568.738-23.784,2575.747-24.2,2578.284-21.191Z" transform="translate(-827.872 -25.53)" fill="#fff"/>
      <path id="Path_7810" data-name="Path 7810" d="M1809.417,252.4a53.17,53.17,0,0,0-7.238-2.515q-1.531-.084-3.068-.09a51.421,51.421,0,0,0-7.334.237c-1.483.2-4.021.642-4.531,1.705-.349.726.383,1.373,1.022,1.954.673.612,1.22,1.316,1.908,1.907a12.727,12.727,0,0,0,3.124,1.419,15.555,15.555,0,0,0,4.188,1.206,22.169,22.169,0,0,0,7.512.029c1.894-.415,4-.691,5.834-1.218a17.82,17.82,0,0,0,3.667-1.632C1816.174,254.392,1815.476,253.652,1809.417,252.4Z" transform="translate(-330.719 -205.936)" fill="#fff"/>
      <path id="Path_7811" data-name="Path 7811" d="M1674.771,86.114c2,.934,4.748,1.825,6.414,3.029a15.387,15.387,0,0,1,1.691,1.945,9.2,9.2,0,0,1,2.148,4.052c.807,2.3-.425,4.075-3.142,5.605-1.483.835-3.652.719-5.583.881-2.345.2-4.777.241-7.137.369-1.845.1-3.557.074-5.4.279a19.462,19.462,0,0,1-6.146-.384A19.162,19.162,0,0,1,1652,99.757a7.638,7.638,0,0,1-3.073-3.343c-1.311-2.36-.374-5.548,2.026-7.489s6.747-2.929,10.366-3.6a23.717,23.717,0,0,1,6.7-.291c1.847.143,3.671.291,5.476.594C1674.4,85.783,1675.356,86.045,1674.771,86.114Z" transform="translate(-239.083 -97.12)" fill="#fff"/>
      <path id="Path_7812" data-name="Path 7812" d="M1623.229,91.153a19.9,19.9,0,0,0-5.448,2.045,7.154,7.154,0,0,0,3.313,2.588,7.64,7.64,0,0,0,4.664-.275c1.7-.584,2.874-1.89,1.669-3.076a7.931,7.931,0,0,0-1.518-1.054c-.984-.482-3.044-.227-4.2-.228Z" transform="translate(-218.912 -101.185)" fill="#fff"/>
      <path id="Path_7813" data-name="Path 7813" d="M1606.063,108.573c-1.439-1.061-3.609-3.131-5.624-4.11a21.374,21.374,0,0,0-4.432-1.352c-1.191-.265-2.483-.7-3.5-.065-1.71,1.058-.017,3.407,1.106,4.4,1.326,1.174,3.411,1,5.413,1.287a18.413,18.413,0,0,0,4,.187c.749-.073,3.613-1.06,2.027-1.648Z" transform="translate(-201.746 -108.864)" fill="#fff"/>
      <path id="Path_7814" data-name="Path 7814" d="M2119.452,188.586a10.354,10.354,0,0,0-2.757-1.389,7.806,7.806,0,0,0-1.416-.024,1.919,1.919,0,0,0-1.465.6c-.194.314.051.758.184,1.064a1.791,1.791,0,0,0,.42.731c.8.674,2.766.842,3.963.848a1.62,1.62,0,0,0,1.5-.7c.423-.6-.1-1.117-.431-1.687Z" transform="translate(-546.305 -164.6)" fill="#fff"/>
      <path id="Path_7815" data-name="Path 7815" d="M2451.152-56.787c.581.382,6.922,3.56,5.916,5.292-.591,1.017-5.422,1.461-6.67,1.693-5.625,1.043-11.787,1.574-16.078-1.61-1.732-1.285-3.224-2.218-3.691-3.91a4.292,4.292,0,0,1,1.361-4.321C2437.652-65.5,2449.386-59.872,2451.152-56.787Z" transform="translate(-755.387 0)" fill="#fff"/>
      <path id="Path_7816" data-name="Path 7816" d="M2461.069-12.956q-3.194-.135-6.372.049a9.05,9.05,0,0,0,1.187,1.915c.679.67,1.189.637,2.4.633a4.858,4.858,0,0,0,2.533-.322c.8-.409,1.271-1.114.249-1.626Z" transform="translate(-771.375 -32.467)" fill="#fff"/>
      <path id="Path_7817" data-name="Path 7817" d="M2447.7,1.809a21.011,21.011,0,0,1,6.016,1.719c-.676.469-2.271.247-3.107.155a18.638,18.638,0,0,1-3.451-.577c-1.487-.508-1.769-1.184.036-1.622Z" transform="translate(-765.592 -42.036)" fill="#fff"/>
    </g>
  </g>
</svg>
