<svg xmlns="http://www.w3.org/2000/svg" xmlns:xlink="http://www.w3.org/1999/xlink" width="434" height="140" viewBox="0 0 434 140">
  <defs>
    <clipPath id="clip-path">
      <rect id="Rectangle_909" data-name="Rectangle 909" width="434" height="140" transform="translate(0 1625)" fill="#fff" stroke="#707070" stroke-width="1"/>
    </clipPath>
    <linearGradient id="linear-gradient" x1="1.694" y1="1" x2="1.694" gradientUnits="objectBoundingBox">
      <stop offset="0" stop-color="#d3ecfa"/>
      <stop offset="0.156" stop-color="#e2f2fb"/>
      <stop offset="0.383" stop-color="#f2f9fd"/>
      <stop offset="0.642" stop-color="#fcfdfe"/>
      <stop offset="0.994" stop-color="#fff"/>
    </linearGradient>
    <linearGradient id="linear-gradient-2" x1="1.726" y1="1.327" x2="1.688" y2="0.404" gradientUnits="objectBoundingBox">
      <stop offset="0" stop-color="#cee3f5"/>
      <stop offset="0.585" stop-color="#edf5fb"/>
      <stop offset="0.994" stop-color="#fff"/>
    </linearGradient>
    <linearGradient id="linear-gradient-3" x1="4.482" y1="1" x2="4.482" gradientUnits="objectBoundingBox">
      <stop offset="0" stop-color="#ced9ee"/>
      <stop offset="0.069" stop-color="#d3dcef"/>
      <stop offset="0.32" stop-color="#e3e6f3"/>
      <stop offset="0.605" stop-color="#edecf5"/>
      <stop offset="0.994" stop-color="#f0eef6"/>
    </linearGradient>
    <linearGradient id="linear-gradient-4" x1="2.301" y1="1" x2="2.301" y2="0" xlink:href="#linear-gradient-3"/>
    <linearGradient id="linear-gradient-5" x1="-0.694" y1="1" x2="-0.694" y2="0" xlink:href="#linear-gradient"/>
    <linearGradient id="linear-gradient-6" x1="-0.726" y1="1.327" x2="-0.688" y2="0.404" xlink:href="#linear-gradient-2"/>
    <linearGradient id="linear-gradient-7" x1="-3.482" y1="1" x2="-3.482" y2="0" xlink:href="#linear-gradient-3"/>
    <linearGradient id="linear-gradient-8" x1="-1.301" y1="1" x2="-1.301" y2="0" xlink:href="#linear-gradient-3"/>
  </defs>
  <g id="Mask_Group_5" data-name="Mask Group 5" transform="translate(0 -1625)" clip-path="url(#clip-path)">
    <g id="Group_2911" data-name="Group 2911">
      <g id="Group_2484" data-name="Group 2484" transform="translate(-49.622 1631)">
        <path id="Path_7795" data-name="Path 7795" d="M1769.777,92.494s-15.883-.09-41.2-.379h-.01c-52.095-.591-144.126-2.037-219.825-5.314h-.01q-4.656-.2-9.223-.411l-.4-.019c-107.624-4.967-203.02-10.905-212.224-11.484-.48-.032-.731-.045-.731-.045V-25.74s44.264-10.751,67.346,0,20.379,48.948,20.379,48.948,11.547-9.588,24.445-8.283,15.552,10.79,15.552,10.79,23.153-10.79,44.884,0,13.73,49.455,13.73,49.455c19.918-10.1,30.864.649,30.864.649a.792.792,0,0,1,.07-.09c.9-1.138,10.334-12.923,21.15-19.979.23-.154.431-.289.6-.392a.847.847,0,0,1,.14-.09c.08-.052.141-.09.2-.122a.454.454,0,0,1,.1-.064l.04-.025c4.687-2.9,9.594-4.826,14.13-4.563,11.136.649,7.591,13.957,7.591,13.957s36.112-47.065,77.981-43.28C1660.671,24.364,1654.792,63,1654.792,63s10.866-7.846,16.744-3.778,2.263,15.4,2.263,15.4,3.285-3.1,10.485-4.653a.093.093,0,0,1,.04-.006,46.868,46.868,0,0,1,18,.013c9.143,1.6,17.615,5.784,24.094,9.852l.03.019c2.644,1.652,4.967,3.29,6.85,4.717.11.077.21.154.31.231,3.1,2.358,5.017,4.113,5.337,4.415a.224.224,0,0,1,.05.045,109.522,109.522,0,0,1,13.129,0,64.025,64.025,0,0,1,8.6,1.054.088.088,0,0,1,.04.006A84.991,84.991,0,0,1,1769.777,92.494Z" transform="translate(-1286.155 41.285)" fill-rule="evenodd" fill="url(#linear-gradient)"/>
        <path id="Path_7796" data-name="Path 7796" d="M1769.777,151.011s-156.864-.874-270.266-6.1c-107.784-4.974-203.411-10.924-212.624-11.5l-.731-10.108V66.752s19.754,26.892,50.989,22.753c10.246-1.358,7.315-22.965,2.828-31.377.551.938,5.328,8.527,17.665,11.272,0,0,8.3-.3,11.126-5.848,0,0,4.657,9.067,5.117,18.173,0,0-18.495,13.522-8.149,22.251,13.662,11.526,44.531-6.334,44.531-6.334s-4.056,11.368,10.115,23.706,52.115,12.338,52.115,12.338-6.578,2.748-6.131,5.234c.569,3.166,32.7,4.348,39.277,3.044s-2.282-7.629-2.282-7.629a.792.792,0,0,1,.07-.09c.891-1.227,10.645-14.394,22.142-20.621a.225.225,0,0,1-.05.038c-.06.032-.12.071-.2.122l-.14.09c-.17.1-.371.238-.6.392-3.255,2.165-12.788,9.183-13.63,17.35-1.012,9.858,17.044,7.184,24.625,4.267s11.807-12.917,11.807-12.917l7.343-8.41c-3.8,11.057-1.352,19.71,3.286,22.32,11.638,6.548,31.37-2.057,47.563-10.173s30.865-9.9,46.028-5.041c-.741-.173-21.46-5.045-34.389,2.6-13.159,7.795-5.568,15.956,7.08,18.205s20.239-3.265,24.295-8.135a41.727,41.727,0,0,0,4.446-6.471c-1.512,3.29-3.845,9.247-2.424,11.991,2.023,3.894,11.637,3.573,16.694.649a14.712,14.712,0,0,0,6.5-7.364s3.225-3.811,10.485-4.653a.093.093,0,0,1,.04-.006s-10.956,9.2-8.292,14.51,30.354,6.034,40.6,3.843,9.784-8.489,9.784-8.489l.03.019c.34.219,3.635,2.378,6.85,4.717.11.077.21.154.31.231a40.135,40.135,0,0,1,5.337,4.415.224.224,0,0,1,.05.045s12.568.045,21.731,1.054a.088.088,0,0,1,.04.006C1765.11,149.308,1768.685,150,1769.777,151.011Z" transform="translate(-1286.155 -17.232)" fill-rule="evenodd" fill="url(#linear-gradient-2)" style="mix-blend-mode: multiply;isolation: isolate"/>
        <path id="Path_7797" data-name="Path 7797" d="M2295.466,198.093c-107.624-4.967-203.02-10.905-212.223-11.484-.48-.032-.731-.045-.731-.045V138.728s39.6,4.978,56.3,11.391,1.012,21.51,55.147,17.288c11.647,2.924,36.763,20.047,58.32,24.143C2266.745,194.3,2292.371,197.919,2295.466,198.093Z" transform="translate(-2082.511 -70.437)" fill-rule="evenodd" fill="url(#linear-gradient-3)" style="mix-blend-mode: multiply;isolation: isolate"/>
        <path id="Path_7798" data-name="Path 7798" d="M1627.224,311.283c-52.095-.591-144.126-2.037-219.824-5.314,1.092-.065,42.271-4.072,65.94-4.455C1504.858,301,1513.966,311.283,1627.224,311.283Z" transform="translate(-1184.81 -177.883)" fill-rule="evenodd" fill="url(#linear-gradient-4)" style="mix-blend-mode: multiply;isolation: isolate"/>
        <path id="Path_7799" data-name="Path 7799" d="M1637.1,245.763c-1.892,1.053-3.323,1.662-4.237,3.089a2.46,2.46,0,0,0-.579,1.7,4.061,4.061,0,0,0,1.528,2.338,24.026,24.026,0,0,0,3.231,2.455,9.95,9.95,0,0,1,1.333,1.13,9.869,9.869,0,0,0,2.457,1.348,17.309,17.309,0,0,0,2.34.771,23.527,23.527,0,0,0,3.509.4c1.818.166,3.7.071,5.541.083.989.006,2.009-.1,2.99-.18.657-.052,1.25-.2,1.891-.279.585-.077,1.178-.056,1.766-.149a18.939,18.939,0,0,0,3.908-.931,20.354,20.354,0,0,0,4.05-2.195,13.669,13.669,0,0,0,3.931-3.9,7.734,7.734,0,0,0,.852-2.43,12.891,12.891,0,0,0,.414-2.225,4.045,4.045,0,0,0-.762-2.56c-.665-.868-2.616-1.327-3.968-1.567a33.657,33.657,0,0,0-3.616-.272c-1.654-.105-3.344-.214-5.006-.207-1.463.006-2.935-.046-4.394.04-1.5.089-2.99.219-4.49.289a21.861,21.861,0,0,0-5.216.906c-1.8.542-4.011.791-5.663,1.528-1.151.514-2.252,1.069-3.332,1.632a9.309,9.309,0,0,0-1.766,1.291Z" transform="translate(-1306.049 -138.726)" fill="#fff"/>
        <path id="Path_7800" data-name="Path 7800" d="M1649.361,131.441a17.45,17.45,0,0,0-3.214,1.519c-.153.144-.289.421-.473.6-.83.8-1.677,1.595-2.449,2.414a19.379,19.379,0,0,0-4.255,6.258,11.1,11.1,0,0,0-.765,3.34,12.052,12.052,0,0,0,.537,3.275c.543,2.187.58,4.271,2.265,6.261a7.179,7.179,0,0,0,2.276,2.123,16.836,16.836,0,0,0,2.8,1.3,34.5,34.5,0,0,0,6.352,1.659c7.562.956,15.209-.575,22.8-.134,2.772.161,5.657.235,8.441.121a14.9,14.9,0,0,0,6.871-2.224c4.059-2.526,7.565-5.736,8.114-9.46.27-1.834-.475-3.724-1.1-5.5a10.947,10.947,0,0,0-1.651-2.8,21.134,21.134,0,0,0-2.6-3.08,36.362,36.362,0,0,0-13.7-7.785,47.173,47.173,0,0,0-11.4-2.24,37.723,37.723,0,0,0-11.773,1.26c-2.248.61-4.809.969-6.817,1.867C1648.75,130.6,1647.96,130.948,1649.361,131.441Z" transform="translate(-1334.753 -62.718)" fill="#fff"/>
        <path id="Path_7801" data-name="Path 7801" d="M1812.45,211.055a18.534,18.534,0,0,1,3.82.082c.395.1.806.293,1.221.395a37.243,37.243,0,0,1,4.6,1.468,16.128,16.128,0,0,1,3.638,1.963c.8.605,1.859,1.475,1.937,2.313.15,1.611-.852,2.738-3.048,3.531a19.947,19.947,0,0,1-4.595,1.009,13.665,13.665,0,0,1-3.257-.04c-4.937-.525-10.963-2.513-10.369-6.266a5.176,5.176,0,0,1,4.353-4.26A8.216,8.216,0,0,1,1812.45,211.055Z" transform="translate(-1520.865 -118.143)" fill="#fff"/>
        <path id="Path_7802" data-name="Path 7802" d="M1575.724,231.561a15.461,15.461,0,0,0-5.641,2.419,4.144,4.144,0,0,0-1.2,5.532,14.7,14.7,0,0,0,2.085,2.965,12.214,12.214,0,0,0,3.934,2.554c.991.483,2.318,1.481,3.605,1.64a11.575,11.575,0,0,0,3.629-.463,11.736,11.736,0,0,0,2.316-.745,3.957,3.957,0,0,0,1.651-1.517c.807-1.013.419-2.245.486-3.334.035-.559.375-1.06.216-1.62a7.368,7.368,0,0,1-.189-1.742,5.983,5.983,0,0,0-1.529-3.666,9.124,9.124,0,0,0-2.773-2.469,6.51,6.51,0,0,0-3.623-.857,5.191,5.191,0,0,0-2.46.649C1575.551,231.329,1574.528,231.58,1575.724,231.561Z" transform="translate(-1199.132 -130.855)" fill="#fff"/>
        <path id="Path_7803" data-name="Path 7803" d="M1618.086,278.117a31.8,31.8,0,0,1,3.042.978c-.042.376.407.739.26,1.141a1.922,1.922,0,0,1-.76.767,4.048,4.048,0,0,1-1.77.368,4.289,4.289,0,0,1-1.913-.561c-.759-.4-2.477-1.32-1.647-2.008a4.779,4.779,0,0,1,1.062-.815,5.009,5.009,0,0,1,1.979.129Z" transform="translate(-1249.59 -162.314)" fill="#fff"/>
        <path id="Path_7804" data-name="Path 7804" d="M1956.4,213.361a30.046,30.046,0,0,0-3.727-.075,3.348,3.348,0,0,1-.837.414c-1.194.539-2.323,1.117-3.424,1.732a37.686,37.686,0,0,0-4.6,3.287,10.658,10.658,0,0,0-3.617,4.091,4.706,4.706,0,0,0-.012,4.245c.67,1.287,2.634,2.355,4.445,2.992.725.255,1.413.583,2.15.82a26.739,26.739,0,0,0,3.231.681,15.194,15.194,0,0,0,4.987.391,12.7,12.7,0,0,0,4.709-1.694c1.1-.681,1.99-1.47,3.072-2.15a8.132,8.132,0,0,0,2.488-2.23,5.955,5.955,0,0,0,1.005-2.808c.031-.591.22-1.157.259-1.746a6.767,6.767,0,0,0-.2-1.781c-.357-1.807-.736-3.927-3.584-4.878a21.593,21.593,0,0,0-3.878-.848c-.754-.105-1.516-.152-2.271-.251C1955.708,213.437,1954.983,213.742,1956.4,213.361Z" transform="translate(-1705.04 -119.637)" fill="#fff"/>
        <path id="Path_7805" data-name="Path 7805" d="M2071.958,268.973a32.943,32.943,0,0,0-3.565,1,10.893,10.893,0,0,0-1.5.954c-.962.588-2.089,1-3.028,1.609-1.121.725-3.132,1.729-1.752,2.806a10.932,10.932,0,0,0,3.239,1.42c1.871.514,3.766.888,5.7,1.285a50.94,50.94,0,0,0,6.229.663c2.46.185,4.918.308,7.383.45a37.852,37.852,0,0,0,6.8-.292c.782-.1,1.551-.117,2.333-.194.538-.053,1.027-.222,1.557-.275.663-.066,1.335,0,1.589-.5a2.075,2.075,0,0,0-.073-1.456,6.109,6.109,0,0,0-2.021-2.607c-.666-.525-1.446-.961-2.164-1.457a22.9,22.9,0,0,0-3.41-2.1A14.874,14.874,0,0,0,2085,268.8a43.282,43.282,0,0,0-5.477-.314,50.539,50.539,0,0,0-5.675.324c-.727.081-1.439.212-2.162.295C2071.263,269.151,2070.739,269.051,2071.958,268.973Z" transform="translate(-1877.016 -156.092)" fill="#fff"/>
        <path id="Path_7806" data-name="Path 7806" d="M2181.752,128.54a23.645,23.645,0,0,0-2.3,3.117,18.633,18.633,0,0,0-2.02,4.68,27.372,27.372,0,0,0-.545,11.05,17.032,17.032,0,0,0,2.448,5.768,11.915,11.915,0,0,0,3.642,4.144,25.208,25.208,0,0,0,5.11,2.424,19.385,19.385,0,0,0,4.845,1.3,84.729,84.729,0,0,0,10.636.314c1.643-.022,3.345-.1,4.983-.2a19.909,19.909,0,0,0,4.777-.772,22.521,22.521,0,0,0,7.145-3.539,8.624,8.624,0,0,0,3.025-4.59,11,11,0,0,0,.31-5.028,23.529,23.529,0,0,1-.323-2.809,17.837,17.837,0,0,0-.437-2.963,9.894,9.894,0,0,0-3.407-5.729,29.759,29.759,0,0,0-6.331-4.289,25.582,25.582,0,0,0-3.77-1.749c-1.679-.544-3.307-1.054-5.078-1.466a55.289,55.289,0,0,0-11.667-1.631,30.706,30.706,0,0,0-5.051.336,24.606,24.606,0,0,0-3.626.653,5.954,5.954,0,0,0-1.83.8C2181.938,128.659,2181.919,129.109,2181.752,128.54Z" transform="translate(-2042.974 -62.414)" fill="#fff"/>
        <path id="Path_7807" data-name="Path 7807" d="M1427.083,266.105c.089-.069-3.934,2.588-4.132,3.4a16.288,16.288,0,0,1-.173,1.779,2.069,2.069,0,0,0,.843,2.523c3.174,2.605,8.958,3.293,13.542,4.31a73.145,73.145,0,0,0,15.849,1.624c2.286,0,4.353-.168,6.619-.294a11.326,11.326,0,0,0,4.4-.666c3.947-1.893-1.235-4.564-3.676-5.867-3.653-1.951-6.732-4.382-10.978-5.85a33.777,33.777,0,0,0-5.592-1.2,23.78,23.78,0,0,0-3.036-.424c-.834-.026-1.657.082-2.488-.01a34.839,34.839,0,0,0-4.459-.3C1431.566,265.146,1429.615,265.853,1427.083,266.105Z" transform="translate(-1028.228 -153.874)" fill="#fff"/>
        <path id="Path_7808" data-name="Path 7808" d="M2430.069,154.428c-.333-1.386-1.493-3.56-1.035-4.932a15.059,15.059,0,0,1,.914-1.594c.469-.936.8-1.407,2.606-1.271,3.529.266,8.587,2.332,10.072,4.461,1.375,1.972.085,3.745-2.919,4.665a16.263,16.263,0,0,1-4.691.3,8.565,8.565,0,0,1-4.947-1.305Z" transform="translate(-2347.961 -75.639)" fill="#fff"/>
        <path id="Path_7809" data-name="Path 7809" d="M2542.372-21.191c-.882,1.849-1.977,3.471-2.074,5.326a13.844,13.844,0,0,0,.32,3.607c.385,1.8.759,3.606,1.29,5.389A34.062,34.062,0,0,0,2545.9.824a51.082,51.082,0,0,0,9.51,11.806,72.04,72.04,0,0,0,11.032,8.251,10.148,10.148,0,0,0,6.292,1.472c1.739-.194,3.259-1.561,4.2-2.447a11.789,11.789,0,0,0,3.414-9.189c-.265-3.527-2.423-6.974-3.054-10.476-.409-2.27-1.716-4.417-2.535-6.633-.846-2.291-1.416-4.542-3-6.688a25.744,25.744,0,0,0-15.2-9.684C2551.917-23.784,2544.909-24.2,2542.372-21.191Z" transform="translate(-2523.007 36.666)" fill="#fff"/>
        <path id="Path_7810" data-name="Path 7810" d="M1793.024,252.4a53.17,53.17,0,0,1,7.238-2.515q1.531-.084,3.068-.09a51.424,51.424,0,0,1,7.334.237c1.483.2,4.021.642,4.531,1.705.349.726-.383,1.373-1.022,1.954-.673.612-1.22,1.316-1.908,1.907a12.728,12.728,0,0,1-3.124,1.419,15.555,15.555,0,0,1-4.188,1.206,22.169,22.169,0,0,1-7.512.029c-1.894-.415-4-.691-5.834-1.218a17.82,17.82,0,0,1-3.667-1.632C1786.267,254.392,1786.965,253.652,1793.024,252.4Z" transform="translate(-1501.945 -143.739)" fill="#fff"/>
        <path id="Path_7811" data-name="Path 7811" d="M1658.834,86.114c-2,.934-4.748,1.825-6.414,3.029a15.387,15.387,0,0,0-1.691,1.945,9.2,9.2,0,0,0-2.148,4.052c-.807,2.3.425,4.075,3.142,5.605,1.483.835,3.652.719,5.583.881,2.345.2,4.777.241,7.137.369,1.845.1,3.557.074,5.4.279a19.462,19.462,0,0,0,6.146-.384,19.162,19.162,0,0,0,5.611-2.134,7.638,7.638,0,0,0,3.073-3.343c1.311-2.36.374-5.548-2.026-7.489s-6.747-2.929-10.366-3.6a23.717,23.717,0,0,0-6.7-.291c-1.847.143-3.671.291-5.476.594C1659.2,85.783,1658.249,86.045,1658.834,86.114Z" transform="translate(-1324.745 -34.924)" fill="#fff"/>
        <path id="Path_7812" data-name="Path 7812" d="M1622.473,91.153a19.9,19.9,0,0,1,5.448,2.045,7.154,7.154,0,0,1-3.313,2.588,7.64,7.64,0,0,1-4.664-.275c-1.7-.584-2.874-1.89-1.669-3.076a7.931,7.931,0,0,1,1.518-1.054c.984-.482,3.044-.227,4.2-.228Z" transform="translate(-1257.013 -38.988)" fill="#fff"/>
        <path id="Path_7813" data-name="Path 7813" d="M1591.776,108.573c1.439-1.061,3.609-3.131,5.624-4.11a21.374,21.374,0,0,1,4.432-1.352c1.191-.265,2.483-.7,3.5-.065,1.71,1.058.017,3.407-1.106,4.4-1.326,1.174-3.411,1-5.413,1.287a18.413,18.413,0,0,1-4,.187c-.749-.073-3.613-1.06-2.027-1.648Z" transform="translate(-1226.317 -46.668)" fill="#fff"/>
        <path id="Path_7814" data-name="Path 7814" d="M2114.331,188.586a10.354,10.354,0,0,1,2.757-1.389,7.806,7.806,0,0,1,1.416-.024,1.919,1.919,0,0,1,1.465.6c.194.314-.051.758-.184,1.064a1.791,1.791,0,0,1-.42.731c-.8.674-2.766.842-3.963.848a1.62,1.62,0,0,1-1.5-.7c-.423-.6.1-1.117.431-1.687Z" transform="translate(-1917.701 -102.404)" fill="#fff"/>
        <path id="Path_7815" data-name="Path 7815" d="M2436.5-56.787c-.581.382-6.922,3.56-5.916,5.292.591,1.017,5.422,1.461,6.67,1.693,5.625,1.043,11.787,1.574,16.078-1.61,1.732-1.285,3.224-2.218,3.691-3.91a4.292,4.292,0,0,0-1.361-4.321C2450-65.5,2438.266-59.872,2436.5-56.787Z" transform="translate(-2362.488 62.196)" fill="#fff"/>
        <path id="Path_7816" data-name="Path 7816" d="M2455.28-12.956q3.194-.135,6.372.049a9.05,9.05,0,0,1-1.187,1.915c-.679.67-1.189.637-2.4.633a4.858,4.858,0,0,1-2.533-.322c-.8-.409-1.271-1.114-.249-1.626Z" transform="translate(-2375.197 29.729)" fill="#fff"/>
        <path id="Path_7817" data-name="Path 7817" d="M2451.952,1.809a21.011,21.011,0,0,0-6.016,1.719c.676.469,2.271.247,3.107.155a18.638,18.638,0,0,0,3.451-.577c1.487-.508,1.769-1.184-.036-1.622Z" transform="translate(-2364.28 20.16)" fill="#fff"/>
      </g>
      <g id="Group_2910" data-name="Group 2910" transform="translate(-531.665 1631)">
        <path id="Path_7795-2" data-name="Path 7795" d="M1286.155,92.494s15.883-.09,41.2-.379h.01c52.095-.591,144.126-2.037,219.825-5.314h.01q4.656-.2,9.223-.411l.4-.019c107.624-4.967,203.02-10.905,212.224-11.484.48-.032.731-.045.731-.045V-25.74s-44.264-10.751-67.346,0-20.379,48.948-20.379,48.948-11.547-9.588-24.445-8.283-15.552,10.79-15.552,10.79-23.153-10.79-44.884,0-13.73,49.455-13.73,49.455c-19.918-10.1-30.864.649-30.864.649a.792.792,0,0,0-.07-.09c-.9-1.138-10.334-12.923-21.15-19.979-.23-.154-.431-.289-.6-.392a.847.847,0,0,0-.14-.09c-.08-.052-.141-.09-.2-.122a.454.454,0,0,0-.1-.064l-.04-.025c-4.687-2.9-9.594-4.826-14.13-4.563-11.136.649-7.591,13.957-7.591,13.957s-36.112-47.065-77.981-43.28C1395.261,24.364,1401.14,63,1401.14,63s-10.866-7.846-16.744-3.778-2.263,15.4-2.263,15.4-3.285-3.1-10.485-4.653a.093.093,0,0,0-.04-.006,46.868,46.868,0,0,0-18,.013c-9.143,1.6-17.615,5.784-24.094,9.852l-.03.019c-2.644,1.652-4.967,3.29-6.85,4.717-.11.077-.21.154-.31.231-3.1,2.358-5.017,4.113-5.337,4.415a.224.224,0,0,0-.05.045,109.522,109.522,0,0,0-13.129,0,64.025,64.025,0,0,0-8.6,1.054.088.088,0,0,0-.04.006A84.991,84.991,0,0,0,1286.155,92.494Z" transform="translate(-1286.155 41.285)" fill-rule="evenodd" fill="url(#linear-gradient-5)"/>
        <path id="Path_7796-2" data-name="Path 7796" d="M1286.155,151.011s156.864-.874,270.266-6.1c107.784-4.974,203.411-10.924,212.624-11.5l.731-10.108V66.752s-19.754,26.892-50.989,22.753c-10.246-1.358-7.315-22.965-2.828-31.377-.551.938-5.328,8.527-17.665,11.272,0,0-8.3-.3-11.126-5.848,0,0-4.657,9.067-5.117,18.173,0,0,18.495,13.522,8.149,22.251-13.662,11.526-44.531-6.334-44.531-6.334s4.056,11.368-10.115,23.706-52.115,12.338-52.115,12.338,6.578,2.748,6.131,5.234c-.569,3.166-32.7,4.348-39.277,3.044s2.282-7.629,2.282-7.629a.792.792,0,0,0-.07-.09c-.891-1.227-10.645-14.394-22.142-20.621a.225.225,0,0,0,.05.038c.06.032.12.071.2.122l.14.09c.17.1.371.238.6.392,3.255,2.165,12.788,9.183,13.63,17.35,1.012,9.858-17.044,7.184-24.625,4.267s-11.807-12.917-11.807-12.917l-7.343-8.41c3.8,11.057,1.352,19.71-3.286,22.32-11.638,6.548-31.37-2.057-47.563-10.173s-30.865-9.9-46.028-5.041c.741-.173,21.46-5.045,34.389,2.6,13.159,7.795,5.568,15.956-7.08,18.205s-20.239-3.265-24.295-8.135a41.728,41.728,0,0,1-4.446-6.471c1.512,3.29,3.845,9.247,2.424,11.991-2.023,3.894-11.637,3.573-16.694.649a14.712,14.712,0,0,1-6.5-7.364s-3.225-3.811-10.485-4.653a.093.093,0,0,0-.04-.006s10.956,9.2,8.292,14.51-30.354,6.034-40.6,3.843-9.784-8.489-9.784-8.489l-.03.019c-.34.219-3.635,2.378-6.85,4.717-.11.077-.21.154-.31.231a40.135,40.135,0,0,0-5.337,4.415.224.224,0,0,0-.05.045s-12.568.045-21.731,1.054a.088.088,0,0,0-.04.006C1290.822,149.308,1287.246,150,1286.155,151.011Z" transform="translate(-1286.155 -17.232)" fill-rule="evenodd" fill="url(#linear-gradient-6)" style="mix-blend-mode: multiply;isolation: isolate"/>
        <path id="Path_7797-2" data-name="Path 7797" d="M2082.511,198.093c107.624-4.967,203.02-10.905,212.223-11.484.48-.032.731-.045.731-.045V138.728s-39.6,4.978-56.3,11.391-1.012,21.51-55.147,17.288c-11.647,2.924-36.763,20.047-58.32,24.143C2111.232,194.3,2085.605,197.919,2082.511,198.093Z" transform="translate(-1811.844 -70.437)" fill-rule="evenodd" fill="url(#linear-gradient-7)" style="mix-blend-mode: multiply;isolation: isolate"/>
        <path id="Path_7798-2" data-name="Path 7798" d="M1407.4,311.283c52.095-.591,144.126-2.037,219.824-5.314-1.092-.065-42.271-4.072-65.94-4.455C1529.765,301,1520.657,311.283,1407.4,311.283Z" transform="translate(-1366.19 -177.883)" fill-rule="evenodd" fill="url(#linear-gradient-8)" style="mix-blend-mode: multiply;isolation: isolate"/>
        <path id="Path_7799-2" data-name="Path 7799" d="M1667.2,245.763c1.892,1.053,3.323,1.662,4.237,3.089a2.46,2.46,0,0,1,.579,1.7,4.061,4.061,0,0,1-1.528,2.338,24.026,24.026,0,0,1-3.231,2.455,9.95,9.95,0,0,0-1.333,1.13,9.869,9.869,0,0,1-2.457,1.348,17.309,17.309,0,0,1-2.34.771,23.527,23.527,0,0,1-3.509.4c-1.818.166-3.7.071-5.541.083-.989.006-2.009-.1-2.99-.18-.657-.052-1.25-.2-1.891-.279-.585-.077-1.178-.056-1.766-.149a18.939,18.939,0,0,1-3.908-.931,20.354,20.354,0,0,1-4.05-2.195,13.669,13.669,0,0,1-3.931-3.9,7.734,7.734,0,0,1-.852-2.43,12.891,12.891,0,0,1-.414-2.225,4.045,4.045,0,0,1,.762-2.56c.665-.868,2.616-1.327,3.968-1.567a33.657,33.657,0,0,1,3.616-.272c1.654-.105,3.344-.214,5.006-.207,1.463.006,2.935-.046,4.394.04,1.5.089,2.99.219,4.49.289a21.861,21.861,0,0,1,5.216.906c1.8.542,4.011.791,5.663,1.528,1.151.514,2.252,1.069,3.332,1.632a9.309,9.309,0,0,1,1.766,1.291Z" transform="translate(-1514.631 -138.726)" fill="#fff"/>
        <path id="Path_7800-2" data-name="Path 7800" d="M1687.563,131.441a17.45,17.45,0,0,1,3.214,1.519c.153.144.289.421.473.6.83.8,1.677,1.595,2.449,2.414a19.379,19.379,0,0,1,4.255,6.258,11.1,11.1,0,0,1,.765,3.34,12.052,12.052,0,0,1-.537,3.275c-.543,2.187-.58,4.271-2.265,6.261a7.179,7.179,0,0,1-2.276,2.123,16.836,16.836,0,0,1-2.8,1.3,34.5,34.5,0,0,1-6.352,1.659c-7.562.956-15.209-.575-22.8-.134-2.772.161-5.657.235-8.441.121a14.9,14.9,0,0,1-6.871-2.224c-4.059-2.526-7.565-5.736-8.114-9.46-.27-1.834.475-3.724,1.1-5.5a10.947,10.947,0,0,1,1.651-2.8,21.134,21.134,0,0,1,2.6-3.08,36.362,36.362,0,0,1,13.7-7.785,47.173,47.173,0,0,1,11.4-2.24,37.723,37.723,0,0,1,11.773,1.26c2.248.61,4.809.969,6.817,1.867C1688.174,130.6,1688.964,130.948,1687.563,131.441Z" transform="translate(-1518.549 -62.718)" fill="#fff"/>
        <path id="Path_7801-2" data-name="Path 7801" d="M1821.584,211.055a18.534,18.534,0,0,0-3.82.082c-.395.1-.806.293-1.221.395a37.243,37.243,0,0,0-4.6,1.468,16.128,16.128,0,0,0-3.638,1.963c-.8.605-1.859,1.475-1.937,2.313-.15,1.611.852,2.738,3.048,3.531a19.947,19.947,0,0,0,4.595,1.009,13.665,13.665,0,0,0,3.257-.04c4.937-.525,10.963-2.513,10.369-6.266a5.176,5.176,0,0,0-4.353-4.26A8.216,8.216,0,0,0,1821.584,211.055Z" transform="translate(-1629.549 -118.143)" fill="#fff"/>
        <path id="Path_7802-2" data-name="Path 7802" d="M1579.455,231.561a15.461,15.461,0,0,1,5.641,2.419,4.144,4.144,0,0,1,1.2,5.532,14.7,14.7,0,0,1-2.085,2.965,12.214,12.214,0,0,1-3.934,2.554c-.991.483-2.318,1.481-3.605,1.64a11.575,11.575,0,0,1-3.629-.463,11.736,11.736,0,0,1-2.316-.745,3.957,3.957,0,0,1-1.651-1.517c-.807-1.013-.419-2.245-.486-3.334-.035-.559-.375-1.06-.216-1.62a7.368,7.368,0,0,0,.189-1.742,5.983,5.983,0,0,1,1.529-3.666,9.124,9.124,0,0,1,2.773-2.469,6.51,6.51,0,0,1,3.623-.857,5.191,5.191,0,0,1,2.46.649C1579.628,231.329,1580.651,231.58,1579.455,231.561Z" transform="translate(-1472.425 -130.855)" fill="#fff"/>
        <path id="Path_7803-2" data-name="Path 7803" d="M1618.409,278.117a31.8,31.8,0,0,0-3.042.978c.042.376-.407.739-.26,1.141a1.922,1.922,0,0,0,.76.767,4.048,4.048,0,0,0,1.77.368,4.289,4.289,0,0,0,1.913-.561c.759-.4,2.477-1.32,1.647-2.008a4.779,4.779,0,0,0-1.062-.815,5.009,5.009,0,0,0-1.979.129Z" transform="translate(-1503.282 -162.314)" fill="#fff"/>
        <path id="Path_7804-2" data-name="Path 7804" d="M1949.823,213.361a30.046,30.046,0,0,1,3.727-.075,3.348,3.348,0,0,0,.837.414c1.194.539,2.323,1.117,3.424,1.732a37.686,37.686,0,0,1,4.6,3.287,10.658,10.658,0,0,1,3.617,4.091,4.706,4.706,0,0,1,.012,4.245c-.67,1.287-2.634,2.355-4.445,2.992-.725.255-1.413.583-2.15.82a26.739,26.739,0,0,1-3.231.681,15.194,15.194,0,0,1-4.987.391,12.7,12.7,0,0,1-4.709-1.694c-1.1-.681-1.99-1.47-3.072-2.15a8.132,8.132,0,0,1-2.488-2.23,5.955,5.955,0,0,1-1.005-2.808c-.031-.591-.22-1.157-.259-1.746a6.767,6.767,0,0,1,.2-1.781c.357-1.807.736-3.927,3.584-4.878a21.593,21.593,0,0,1,3.878-.848c.754-.105,1.516-.152,2.271-.251C1950.515,213.437,1951.24,213.742,1949.823,213.361Z" transform="translate(-1717.561 -119.637)" fill="#fff"/>
        <path id="Path_7805-2" data-name="Path 7805" d="M2086.753,268.973a32.943,32.943,0,0,1,3.565,1,10.893,10.893,0,0,1,1.5.954c.962.588,2.089,1,3.028,1.609,1.121.725,3.132,1.729,1.752,2.806a10.932,10.932,0,0,1-3.239,1.42c-1.871.514-3.766.888-5.7,1.285a50.94,50.94,0,0,1-6.229.663c-2.46.185-4.918.308-7.383.45a37.852,37.852,0,0,1-6.8-.292c-.782-.1-1.551-.117-2.333-.194-.538-.053-1.027-.222-1.557-.275-.663-.066-1.335,0-1.589-.5a2.075,2.075,0,0,1,.073-1.456,6.109,6.109,0,0,1,2.021-2.607c.666-.525,1.446-.961,2.164-1.457a22.9,22.9,0,0,1,3.41-2.1,14.874,14.874,0,0,1,4.289-1.486,43.282,43.282,0,0,1,5.477-.314,50.539,50.539,0,0,1,5.675.324c.727.081,1.439.212,2.162.295C2087.449,269.151,2087.973,269.051,2086.753,268.973Z" transform="translate(-1798.074 -156.092)" fill="#fff"/>
        <path id="Path_7806-2" data-name="Path 7806" d="M2218.769,128.54a23.645,23.645,0,0,1,2.3,3.117,18.633,18.633,0,0,1,2.02,4.68,27.372,27.372,0,0,1,.545,11.05,17.032,17.032,0,0,1-2.448,5.768,11.915,11.915,0,0,1-3.642,4.144,25.208,25.208,0,0,1-5.11,2.424,19.385,19.385,0,0,1-4.845,1.3,84.729,84.729,0,0,1-10.636.314c-1.643-.022-3.345-.1-4.983-.2a19.909,19.909,0,0,1-4.777-.772,22.521,22.521,0,0,1-7.145-3.539,8.624,8.624,0,0,1-3.025-4.59,11,11,0,0,1-.31-5.028,23.529,23.529,0,0,0,.323-2.809,17.837,17.837,0,0,1,.438-2.963,9.894,9.894,0,0,1,3.407-5.729,29.759,29.759,0,0,1,6.331-4.289,25.582,25.582,0,0,1,3.77-1.749c1.679-.544,3.307-1.054,5.078-1.466a55.289,55.289,0,0,1,11.667-1.631,30.706,30.706,0,0,1,5.051.336,24.606,24.606,0,0,1,3.626.653,5.954,5.954,0,0,1,1.83.8C2218.583,128.659,2218.6,129.109,2218.769,128.54Z" transform="translate(-1873.925 -62.414)" fill="#fff"/>
        <path id="Path_7807-2" data-name="Path 7807" d="M1461.012,266.105c-.089-.069,3.934,2.588,4.132,3.4a16.288,16.288,0,0,0,.173,1.779,2.069,2.069,0,0,1-.843,2.523c-3.174,2.605-8.958,3.293-13.542,4.31a73.145,73.145,0,0,1-15.849,1.624c-2.286,0-4.353-.168-6.619-.294a11.326,11.326,0,0,1-4.4-.666c-3.947-1.893,1.235-4.564,3.676-5.867,3.653-1.951,6.732-4.382,10.978-5.85a33.777,33.777,0,0,1,5.592-1.2,23.78,23.78,0,0,1,3.036-.424c.834-.026,1.657.082,2.488-.01a34.839,34.839,0,0,1,4.459-.3C1456.529,265.146,1458.48,265.853,1461.012,266.105Z" transform="translate(-1376.245 -153.874)" fill="#fff"/>
        <path id="Path_7808-2" data-name="Path 7808" d="M2442.034,154.428c.333-1.386,1.493-3.56,1.035-4.932a15.059,15.059,0,0,0-.914-1.594c-.469-.936-.8-1.407-2.606-1.271-3.529.266-8.587,2.332-10.072,4.461-1.375,1.972-.085,3.745,2.919,4.665a16.263,16.263,0,0,0,4.691.3,8.565,8.565,0,0,0,4.947-1.305Z" transform="translate(-2040.52 -75.639)" fill="#fff"/>
        <path id="Path_7809-2" data-name="Path 7809" d="M2578.284-21.191c.882,1.849,1.977,3.471,2.074,5.326a13.844,13.844,0,0,1-.32,3.607c-.385,1.8-.759,3.606-1.29,5.389A34.062,34.062,0,0,1,2574.76.824a51.082,51.082,0,0,1-9.51,11.806,72.04,72.04,0,0,1-11.032,8.251,10.148,10.148,0,0,1-6.292,1.472c-1.739-.194-3.259-1.561-4.2-2.447a11.789,11.789,0,0,1-3.414-9.189c.265-3.527,2.423-6.974,3.054-10.476.409-2.27,1.716-4.417,2.535-6.633.846-2.291,1.416-4.542,3-6.688a25.744,25.744,0,0,1,15.2-9.684C2568.738-23.784,2575.747-24.2,2578.284-21.191Z" transform="translate(-2114.027 36.666)" fill="#fff"/>
        <path id="Path_7810-2" data-name="Path 7810" d="M1809.417,252.4a53.17,53.17,0,0,0-7.238-2.515q-1.531-.084-3.068-.09a51.424,51.424,0,0,0-7.334.237c-1.483.2-4.021.642-4.531,1.705-.349.726.383,1.373,1.022,1.954.673.612,1.22,1.316,1.908,1.907a12.728,12.728,0,0,0,3.124,1.419,15.555,15.555,0,0,0,4.188,1.206,22.169,22.169,0,0,0,7.512.029c1.894-.415,4-.691,5.834-1.218a17.82,17.82,0,0,0,3.667-1.632C1816.174,254.392,1815.476,253.652,1809.417,252.4Z" transform="translate(-1616.874 -143.739)" fill="#fff"/>
        <path id="Path_7814-2" data-name="Path 7814" d="M2119.452,188.586a10.354,10.354,0,0,0-2.757-1.389,7.806,7.806,0,0,0-1.416-.024,1.919,1.919,0,0,0-1.465.6c-.194.314.051.758.184,1.064a1.791,1.791,0,0,0,.42.731c.8.674,2.766.842,3.963.848a1.62,1.62,0,0,0,1.5-.7c.423-.6-.1-1.117-.431-1.687Z" transform="translate(-1832.46 -102.404)" fill="#fff"/>
        <path id="Path_7817-2" data-name="Path 7817" d="M2447.7,1.809a21.011,21.011,0,0,1,6.016,1.719c-.676.469-2.271.247-3.107.155a18.638,18.638,0,0,1-3.451-.577c-1.487-.508-1.769-1.184.036-1.622Z" transform="translate(-2051.747 20.16)" fill="#fff"/>
      </g>
    </g>
  </g>
</svg>
